<?xml version="1.0" encoding="UTF-8" standalone="no"?>
<svg
   xmlns:dc="http://purl.org/dc/elements/1.1/"
   xmlns:cc="http://creativecommons.org/ns#"
   xmlns:rdf="http://www.w3.org/1999/02/22-rdf-syntax-ns#"
   xmlns:svg="http://www.w3.org/2000/svg"
   xmlns="http://www.w3.org/2000/svg"
   viewBox="0 0 841.27557 841.88977"
   id="svg2"
   height="841.88977"
   width="841.88977"
   version="1.1">
  <metadata
     id="metadata10">
    <rdf:RDF>
      <cc:Work
         rdf:about="">
        <dc:format>image/svg+xml</dc:format>
        <dc:type
           rdf:resource="http://purl.org/dc/dcmitype/StillImage" />
      </cc:Work>
    </rdf:RDF>
  </metadata>
  <defs
     id="defs8" />
  <path
     id="path4"
     style="fill:#1b1918;fill-rule:evenodd;stroke:#1b1918;stroke-width:0.5;stroke-linecap:butt;stroke-linejoin:miter;stroke-dasharray:none"
     d="m 297.6378,478.23 c 1.3669,0 2.4749,1.108 2.4749,2.4749 0,1.3668 -1.108,2.4749 -2.4749,2.4749 -1.3669,0 -2.4749,-1.1081 -2.4749,-2.4749 0,-1.3669 1.108,-2.4749 2.4749,-2.4749 z m 52.0466,-38.6935 c -0.9671,1.9516 -2.8624,6.8068 -2.8632,8.9311 -6e-4,0.968 0.2792,2.6895 1.0321,3.2051 0.4181,-0.1522 0.4322,-0.3211 0.8438,-0.9623 1.0497,-2.0946 4.8717,-11.2731 0.9873,-11.1739 z m 2.7349,2.5412 c 0.6001,-0.5632 0.8736,-1.5814 1.0925,-2.4188 0,0 1.1979,-4.7639 1.1979,-4.7639 0.2503,-1.8765 0.0714,-3.2088 -1.1945,-4.5825 -0.7138,-0.7747 -0.4332,-0.5575 -0.9156,-0.6273 -0.4646,0.542 -1.1894,4.1446 -1.353,4.9907 -0.7716,4.0011 -0.379,4.2576 1.1727,7.4018 z m -3.0308,10.1588 c 2.8284,-0.8118 4.1814,-1.3393 5.7957,-4.0989 0.5148,-0.962 2.7485,-5.178 2.5322,-5.9439 -0.246,-0.8742 -2.4298,-0.1262 -3.4481,0.7923 -1.4768,1.3322 -6.9505,10.0695 -4.8798,9.2505 z m 8.1717,-31.9991 c 0.7288,0.008 0.5355,0.07 1.1464,-0.5596 0.121,-0.1244 0.1354,-0.1352 0.2551,-0.2551 1.3317,-1.3346 1.6222,-2.2538 2.0406,-4.2285 0.3124,-1.4743 -0.1032,-6.5259 -0.5669,-7.6629 -0.4901,-1.2019 -2.0302,0.7149 -2.2969,1.1931 -0.6911,1.2416 -0.5771,1.8644 -0.79,3.498 -0.2838,2.1813 0.1556,5.6747 0.2117,8.015 z m -15.6676,41.1565 c 0.828,0.3143 3.2683,-0.1548 4.0762,-0.5185 2.192,-0.9873 3.7046,-2.8142 5.0499,-4.8056 0.3631,-0.538 0.5508,-0.9686 0.8904,-1.4918 0.3909,-0.6004 0.6157,-0.779 0.8081,-1.7419 -1.8414,-0.3821 -2.5906,-0.0981 -3.8693,0.6913 -1.9026,1.1761 -4.3185,4.5783 -5.8991,6.5413 -0.5466,0.68 -0.5967,0.4819 -1.0562,1.3252 z m 11.5597,-19.1756 c 1.3793,0.6407 4.5059,-2.5829 5.2591,-3.9529 0.7815,-1.4213 1.3583,-3.8324 1.5936,-5.0927 0.0247,-0.1335 0.0536,-0.3166 0.0746,-0.4295 0.0439,-0.2349 0.2058,-0.8458 0.2267,-0.9734 0.3249,-1.9513 -1.8416,-0.8107 -3.1643,0.5738 -1.4763,1.5457 -2.2532,4.5807 -2.9197,6.616 -0.3313,1.0117 -1.2126,2.8505 -1.07,3.2587 z m -91.5231,26.8722 c -1.6812,-1.6818 -10.1512,-8.6525 -12.3443,-5.9967 1.332,2.0574 4.2704,4.5317 6.6469,5.6628 3.2709,1.0425 2.412,0.8311 5.6974,0.3339 z m -19.0355,-16.2604 c 0,0 -0.3078,0.2293 -0.3078,0.2293 0.1681,1.2371 2.851,4.8376 3.8806,5.8264 2.0129,1.7569 2.1781,1.8717 4.6573,2.5081 1.7297,0.1499 1.3995,0.2568 2.052,0.008 -1.0015,-1.112 -7.7312,-9.7594 -10.2821,-8.5717 z m 107.6848,-67.46 c -3.5172,2.3831 1.7079,10.0919 2.6762,13.0155 0.83,-0.2253 0.6604,-0.2236 1.0477,-1.4794 0,0 0.5181,-2.1934 0.5181,-2.1934 0,0 -0.2236,-1.7898 -0.2236,-1.7898 -0.2826,-1.6387 -0.8646,-2.9163 -1.7048,-4.3523 0,0 -1.7161,-2.7323 -1.7161,-2.7323 -0.3707,-0.4941 -0.3262,-0.3376 -0.5975,-0.4683 z m 5.6205,10.3685 c -2.0267,1.4434 -1.9151,3.9328 -1.3187,6.6065 0.2467,1.106 0.6183,2.2518 0.8833,3.3585 0,0 0.6316,2.6118 0.6316,2.6118 0.108,0.521 0.089,0.2735 0.2914,0.7685 0.5618,-0.29 0.8373,-0.6197 1.2197,-1.2379 0.7393,-1.1937 0.9443,-2.2794 1.0256,-3.5932 0.0536,-0.8759 -0.0836,-1.1554 -0.1879,-2.0325 0,0 -1.6217,-5.1777 -1.6217,-5.1777 -0.1985,-0.4839 -0.2671,-0.8473 -0.5582,-1.1103 -0.3364,-0.3045 -0.072,-0.0505 -0.3651,-0.1937 z m 0.4261,35.6361 c 3.6816,0.9918 5.1587,-8.9156 5.0111,-11.823 -0.0842,-1.6495 -2.5413,-0.0647 -3.4901,2.4514 -0.6664,1.7679 -1.5919,8.9118 -1.521,9.3716 z m -20.3531,38.0222 c 0.8388,0 0.9871,-0.066 1.7663,-0.2874 1.6469,-0.468 3.6272,-1.8003 4.8288,-3.0028 0.6744,-0.6746 2.3743,-2.2067 2.6189,-3.0129 -0.2267,-0.3988 0.2617,0.0428 -0.2882,-0.3739 -0.2478,-0.1876 -0.1472,-0.119 -0.4624,-0.2041 -0.3665,-0.0984 -0.7608,-0.1207 -1.146,-0.1131 -1.9262,0.0388 -3.3812,1.0896 -4.9031,2.2263 0,0 -5.3096,4.419 -5.3096,4.419 0,0 1.171,0.2372 1.171,0.2372 0.4711,0.0834 -0.2066,0.0216 0.5434,0.1035 0,0 1.1809,0.008 1.1809,0.008 z m -93.5047,-24.086 c -0.9828,-1.51 -3.5827,-4.3931 -5.1548,-3.1836 0,6e-4 -0.1012,0.0834 -0.0236,0.5038 0,0 0.5114,1.3748 0.5114,1.3748 0.1993,0.5592 0.4657,1.0885 0.7016,1.6372 0.8504,1.973 2.1988,4.472 4.1459,5.5361 0,0 4.0303,1.6815 3.5255,0.7614 -1.3516,-2.1662 -2.3573,-4.5556 -3.706,-6.6297 z m 19.3958,-72.7925 c 2.228,-1.029 11.2637,-6.52 9.2069,-9.7453 -3.2987,0.6923 -10.2691,5.3779 -9.2069,9.7453 z m -8.6423,5.199 c 0,0 0.1525,2.0219 0.1525,2.0219 1.9069,-0.483 8.1292,-7.5424 7.793,-10.1466 -0.0842,-0.6477 -0.2526,-1.2364 -0.9366,-0.864 0,0 -3.8301,2.9894 -3.8301,2.9894 -1.3187,1.0877 -3.1788,3.8625 -3.1788,5.9993 z m 94.8898,10.8054 c 0,0 0.4617,-1.7833 0.4617,-1.7833 0.0252,-0.1556 0.0513,-0.2979 0.0743,-0.4263 0,0 0.002,-1.6538 0.002,-1.6538 -0.0226,-0.1264 -0.0538,-0.3254 -0.0776,-0.4399 0,0 -0.4556,-1.404 -0.4556,-1.404 -0.2449,-0.593 -0.5524,-1.2302 -0.7761,-1.5996 -0.0167,-0.0272 -0.0436,-0.0683 -0.0609,-0.0961 -0.0185,-0.0286 -0.0485,-0.0672 -0.0675,-0.0958 0,0 -3.1666,-3.8696 -3.1666,-3.8696 -0.0218,-0.0232 -0.0555,-0.0604 -0.0774,-0.0842 0,0 -0.4229,-0.4334 -0.4229,-0.4334 -1.508,-1.4771 -2.3156,2.3474 0.4229,6.4211 0.5026,0.7475 3.3923,5.1409 4.1432,5.4649 z m -87.588,81.7027 c -0.9772,-3e-4 -2.0648,0.2605 -2.2995,1.1148 0,0 5.6319,3.7596 5.6319,3.7596 3.8077,1.7541 7.3967,0.4612 7.397,-0.1014 5e-4,-0.3875 -0.7399,-0.5004 -1.1424,-0.7002 -2.8063,-1.3929 -5.9468,-4.0708 -9.587,-4.0728 z M 247.0272,388.406 c 0.4521,-0.2033 0.3543,-0.4017 0.9462,-1.2155 0.1672,-0.2291 0.3075,-0.4674 0.4864,-0.707 0,0 2.8298,-3.9838 2.8298,-3.9838 0.4754,-0.8773 0.8762,-1.4632 1.1685,-2.4253 0.2319,-0.7642 0.2262,-1.2711 0.2049,-2.1943 -0.0238,-1.0043 -0.0351,-1.3085 -0.8671,-1.5335 -0.9873,0.6885 -2.5316,2.571 -3.2661,3.5574 0,0 -0.9632,1.412 -0.9632,1.412 -1.2679,2.0877 -1.6279,4.0116 -1.0142,6.4029 0.0246,0.0929 0.089,0.3203 0.136,0.4011 0.2002,0.3455 0.1134,0.1737 0.3388,0.286 z m 35.2596,90.5043 c -0.3821,-0.2628 -5.9148,-1.9727 -6.785,-2.2252 -1.0001,-0.29 -2.6272,-0.6134 -3.9547,-0.4896 -0.6641,0.0627 -1.1381,0.2126 -1.6868,0.5026 -0.6424,0.3396 -1.014,0.3784 -0.9531,1.2407 0,0 7.4926,2.7956 7.4926,2.7956 2.378,0.3265 3.4537,-0.1571 5.4643,-1.2396 0.6024,-0.4476 0.2651,-0.0658 0.4227,-0.5845 z m -44.6193,-62.758 c 0.0173,-2.4383 0.53,-3.0061 -0.1809,-5.9224 0,0 -0.6661,-1.6945 -0.6661,-1.6945 -0.3589,-0.542 -1.6016,-1.9026 -1.9778,-0.995 -0.4699,1.1322 -0.9133,5.7884 -0.5927,7.6221 0.4076,2.3298 0.8147,2.8712 2.0977,4.261 0.4858,0.5261 0.4881,0.6591 1.1211,0.7906 0,0 0.1987,-4.0618 0.1987,-4.0618 z m 49.7265,67.4998 c 2.1497,5e-4 5.3263,-0.9641 6.1262,-2.7012 -0.3334,-0.2205 -0.2962,-0.1491 -0.4921,-0.1967 0,0 -7.0308,-0.913 -7.0308,-0.913 -2.4253,-0.3144 -5.9655,0.4799 -6.0145,2.3445 0,0 7.4112,1.4664 7.4112,1.4664 z M 241.7474,398.274 c 0,0 2.2096,-4.4079 2.2096,-4.4079 0.1148,-0.2299 0.216,-0.4232 0.3413,-0.6466 2.1597,-3.8426 1.3668,-7.6876 0.3758,-7.753 -0.5394,-0.036 -5.5972,6.8108 -3.7587,11.3181 0.2815,0.6897 0.3249,1.1455 0.832,1.4894 z m -3.7398,34.4539 c -0.8654,-1.1542 -1.6568,-1.8127 -3.4149,-1.7796 -0.0107,0.8876 0.5086,2.901 0.7523,3.9008 0.8805,3.6173 2.3729,5.8912 5.5551,7.2162 0,0 0.8473,0.1114 0.8473,0.1114 0,0 -2.5569,-7.2746 -2.5569,-7.2746 -0.1179,-0.2554 -0.0567,-0.1264 -0.1729,-0.3685 0,0 -1.01,-1.8057 -1.01,-1.8057 z m 2.3083,-30.5608 c 0.0113,-0.0497 0.0221,-0.0908 0.0306,-0.1429 0.1233,-0.7308 0.2628,-3.0342 0.1069,-3.7959 0,0 -0.3447,-1.1268 -0.3447,-1.1268 -0.1596,-0.3231 -0.0411,-0.0884 -0.1868,-0.3268 -0.3314,-0.5425 -0.4947,-0.7458 -1.1109,-0.934 -0.8771,0.9071 -2.0767,5.0037 -2.35,6.7198 -0.2863,1.7994 -0.0303,3.5921 0.9341,5.2038 0.7378,1.2334 0.6431,0.9973 1.1633,1.1657 0,0 1.7575,-6.7629 1.7575,-6.7629 z m -6.5804,20.9596 c 0.0692,3.6179 1.1872,6.1798 3.9838,7.9878 0.0315,0.0206 0.0718,0.0518 0.1029,0.0714 0.6554,0.4031 0.0848,0.2185 0.648,0.233 -0.2763,-2.1215 -0.7687,-8.894 -2.2646,-10.8714 0,0 -1.0564,-1.1158 -1.0564,-1.1158 -2.0863,-1.476 -1.4715,0.6268 -1.4137,3.695 z m 107.6261,-43.3902 c 0.5803,-0.9751 0.1429,-3.3188 -0.2871,-4.4152 -0.1165,-0.2974 -0.0281,-0.1015 -0.1349,-0.3342 -0.1353,-0.2917 -0.0525,-0.1188 -0.1684,-0.3274 0,0 -0.3379,-0.5366 -0.3379,-0.5366 -0.0216,-0.0309 -0.051,-0.0703 -0.0726,-0.1007 0,0 -0.2953,-0.4093 -0.2953,-0.4093 -0.9392,-1.3354 -2.719,-2.9021 -3.9751,-3.8205 -0.2276,-0.1667 -1.1231,-0.8431 -1.3289,-0.9573 -1.7146,-0.9487 -1.2821,3.7936 2.1257,6.6246 0,0 4.4745,4.2766 4.4745,4.2766 z m -13.7758,96.1231 c 1.7898,0 2.1688,-0.3461 3.5637,-0.8807 1.1404,-0.4365 3.3628,-1.8918 4.239,-2.5843 1.3958,-1.1024 1.0718,-0.5392 1.311,-1.3536 -0.8221,-0.3367 -1.156,-0.8133 -2.4712,-0.815 -1.948,-0.002 -8.5646,3.2239 -10.3048,4.8272 0.0462,0.0328 0.1366,0.0978 0.1695,0.1168 1.093,0.6284 2.277,0.6896 3.4928,0.6896 z m -3.9274,-112.0884 c 0.001,2.6045 3.0427,4.5199 4.4643,5.4663 0.0298,0.0205 0.072,0.0479 0.1023,0.0681 0,0 3.9873,2.6645 3.9873,2.6645 0.3781,0.3042 0.1527,0.2625 0.8336,0.3136 0,-0.1792 0.0102,-0.3017 -0.0181,-0.4836 -0.006,-0.0403 -0.019,-0.089 -0.0272,-0.133 -0.007,-0.0442 -0.0241,-0.085 -0.0329,-0.1307 0,0 -0.1066,-0.7792 -0.1066,-0.7792 -0.0621,-0.559 -0.004,-0.2191 -0.0938,-0.5465 0,0 -0.2945,-0.8864 -0.2945,-0.8864 -0.0145,-0.0357 -0.0335,-0.0805 -0.0491,-0.1154 -1.3099,-2.9075 -4.826,-4.6199 -7.501,-5.824 -0.7299,-0.328 -1.2651,-0.9369 -1.2643,0.3863 z m -21.5115,117.7393 c 0.9618,0.9008 2.1146,1.4689 3.3755,1.7852 3.5005,0.1928 5.362,0.292 8.8191,-0.968 0.2211,-0.0805 0.1426,-0.0314 0.3535,-0.1366 0.2276,-0.1131 0.1735,-0.114 0.3044,-0.2197 -0.9156,-3.0192 -7.427,-1.7773 -9.7305,-1.5327 -1.4017,0.1483 -4.4747,-0.1287 -3.122,1.0718 z m 10.944,-2.611 c 0.1533,0.3489 0.038,0.182 0.3155,0.4218 0,0 0.5215,0.3257 0.5215,0.3257 0.6095,0.3342 1.4349,0.7583 2.0739,0.8013 2.9571,0.1993 3.4072,0.2974 6.6044,-0.9113 0,0 3.7021,-1.7697 3.7021,-1.7697 -1.2694,-2.1954 -4.8221,-1.3141 -6.6705,-0.8563 0,0 -4.8793,1.5996 -4.8793,1.5996 -0.4309,0.1681 -1.207,0.2313 -1.6676,0.3889 z m -41.8652,-5.0445 c 0.3033,0.1377 0.0859,0.3189 0.6622,-0.0471 0.0609,-0.7722 -0.0734,-1.3465 -0.3648,-2.154 -0.9893,-2.7346 -5.1931,-4.9269 -6.8766,-6.2249 -0.2449,-0.1882 -0.9936,-1.0735 -1.3691,-0.411 -0.2211,0.39 -0.0488,2.5327 0.8345,3.6977 0.7543,0.9959 1.2421,1.4522 2.2087,2.2046 1.6453,1.0564 3.2409,1.9669 4.9051,2.9347 z m 69.9857,-13.3061 c 0.9241,-0.0791 0.3523,0.0501 0.7634,-0.4377 1.548,-1.8394 4.3855,-5.294 4.5204,-7.7258 0.0635,-1.1416 0.0394,-2.8636 -1.0262,-3.4039 -0.4796,0.3714 -0.6392,0.8436 -0.9249,1.2915 -1.5426,2.4193 -4.1839,5.6582 -3.7953,8.7375 0,0 0.4626,1.5384 0.4626,1.5384 z m -85.6701,-2.8993 c -1.1211,3.9804 1.6257,6.4803 4.1956,8.583 0,0 0.9547,0.7988 0.9547,0.7988 0.6114,0.5499 1.0687,0.9524 1.7541,1.0681 0.1924,-1.8312 0.002,-2.971 -0.9374,-4.4748 -0.8964,-1.4346 -4.8124,-5.841 -5.967,-5.9751 z m 97.9081,-38.3392 c -0.6069,1.0639 -0.7353,7.8404 0.4096,10.16 0.2302,0.466 1.3366,2.1404 1.9256,1.7773 0.3441,-0.2126 0.5162,-2.9186 0.582,-3.5136 0.1885,-1.7044 0.303,-2.7762 0.0218,-4.623 -0.0241,-0.1601 -0.027,-0.2826 -0.0561,-0.4272 -0.0256,-0.1267 -0.0318,-0.1624 -0.1038,-0.3767 0,0 -0.606,-1.3277 -0.606,-1.3277 -0.3575,-0.5505 -1.2178,-1.533 -2.1731,-1.6691 z m -99.1162,-38.702 c 0.3937,0.315 0.2494,0.3033 0.7004,0.3547 3.6236,0.4113 6.215,-1.9131 9.0511,-4.2373 0.7027,-0.576 1.1415,-0.8257 1.421,-1.4343 -4.0584,-1.3388 -6.141,0.1049 -8.9859,3.0719 0,0 -1.4062,1.3085 -1.4062,1.3085 -0.2404,0.2299 0.0235,-0.0258 -0.2892,0.2313 -0.4283,0.3518 -0.3123,0.1443 -0.4912,0.7052 z m -4.7514,68.3947 c -0.4391,0.3004 -0.2838,0.1281 -0.5035,0.6888 -0.0737,0.1896 -0.2239,0.6746 -0.2812,0.8796 -1.0768,3.8911 4.4226,9.7475 5.0157,10.1007 0.5275,-0.5766 0.5204,-0.8776 0.5419,-1.6543 0.046,-1.6852 -0.013,-2.1331 -0.5825,-3.4694 0,0 -3.4376,-5.7472 -3.4376,-5.7472 -0.4277,-0.6919 -0.1819,-0.54 -0.7528,-0.7982 z m -3.3557,-7.5462 c -0.9521,-1.9899 -0.2154,-1.4964 -1.0726,-1.978 -1.7051,1.2447 -1.6895,4.066 -0.7971,6.6237 0.2409,0.6903 2.4843,5.3836 2.7796,5.5355 0.4972,0.2569 0.9737,-1.3527 1.0449,-1.6596 0.0119,-0.0508 0.0173,-0.0961 0.0272,-0.1486 0.01,-0.0536 0.0102,-0.0978 0.0196,-0.1519 0.4592,-2.7221 -0.9159,-5.7269 -2.0016,-8.2211 z m 16.2984,-67.8191 c 4.6187,1.8822 7.6773,-0.9148 12.0081,-3.0192 -1.7274,-3.8004 -11.4803,1.3158 -12.0081,3.0192 z m 81.7038,17.0725 c 0.1522,0.3004 0.2923,0.5655 0.438,0.8169 1.2367,2.1416 2.9208,5.0681 4.7678,6.4293 0,0 0.5035,0.3396 0.5035,0.3396 0.5794,0.3276 2.2549,1.0298 2.7173,0.5558 0,0 -2.5821,-5.2829 -2.5821,-5.2829 -1.1262,-1.8388 -2.6402,-3.4988 -4.949,-3.6255 -0.8209,-0.0394 -1.2674,0.0354 -0.8955,0.7668 z m -11.4097,77.4051 c 1.0823,-0.2934 7.5155,-5.345 7.181,-8.7441 -0.0272,-0.2786 -0.1347,-0.6205 -0.2194,-0.9728 0,0 -0.2259,-0.6676 -0.2259,-0.6676 -0.7008,0.0567 -1.5194,1.1469 -2.382,2.0087 -0.9025,0.9014 -1.6203,1.4972 -2.137,2.1486 -1.2206,1.5375 -2.7476,3.3211 -2.2167,6.2272 z m 4.835,-85.976 c 0.1253,0.6007 0.4006,0.6344 0.8893,1.2138 0.4059,0.4808 0.5595,0.6633 1.0213,1.1872 1.0156,1.1523 2.0222,2.3876 3.2689,3.3381 0.3061,0.2341 0.8864,0.7265 1.6702,1.0474 0.0141,0.006 0.3121,0.1114 0.3506,0.1238 0.4079,0.1352 0.5341,0.1647 0.9664,0.2671 0.1267,0.0294 0.3208,0.0799 0.4059,0.0932 0.1162,0.019 0.3257,0.0389 0.4385,0.0423 0.6508,0.0184 0.5757,0.0362 1.0003,-0.1783 -0.0178,-0.6514 -1.0003,-1.6164 -1.4411,-2.2241 -0.021,-0.0286 -0.051,-0.0689 -0.0723,-0.0987 -0.0215,-0.03 -0.051,-0.0703 -0.0731,-0.1006 0,0 -2.1115,-2.6359 -2.1115,-2.6359 -1.088,-1.1537 -3.9439,-3.4838 -6.3134,-2.0753 z m 15.7227,19.5302 c -0.9896,-1.5886 -2.2096,-2.5538 -4.3328,-2.5248 -0.0178,1.1789 2.1745,6.9834 3.9648,8.8854 0,0 1.5738,1.0979 1.5738,1.0979 0.544,0.2585 0.72,0.3059 1.2776,0.2245 0,0 -0.6763,-3.0453 -0.6763,-3.0453 -0.0108,-0.0396 -0.0241,-0.083 -0.0363,-0.123 0,0 -1.7708,-4.5147 -1.7708,-4.5147 z m -110.653,-2.8174 c 0.2982,0.1381 -0.322,0.1571 0.5182,0.0992 0,0 1.2631,-0.3121 1.2631,-0.3121 2.4574,-1.004 3.9237,-3.6328 5.1996,-5.8104 0,0 1.0069,-1.711 1.0069,-1.711 1.5928,-2.1974 -2.3516,-0.879 -3.1419,-0.2744 -1.3283,1.0165 -2.1739,2.1974 -2.9826,3.6519 -0.317,0.5703 -0.4125,0.9229 -0.7192,1.4862 -0.305,0.5604 -1.2637,2.3697 -1.1441,2.8706 z m 113.7997,15.8043 c 0,0 -1.7249,-4.407 -1.7249,-4.407 -0.375,-0.4116 -1.7787,-1.5083 -2.5395,-1.2841 -0.186,0.3478 0.5388,7.7414 2.2062,9.8274 0,0 1.5894,1.478 1.5894,1.478 0.3333,0.1834 -0.148,0.0797 0.3381,0.1352 0.8133,0.0924 0.4071,-1.5009 0.3569,-1.9015 -0.0952,-0.7628 -0.0161,-2.1549 -0.2262,-3.848 z M 247.5386,389.2844 c 1.6058,0.6098 4.2919,-0.7443 5.4518,-1.8802 0,0 2.1654,-2.2481 2.1654,-2.2481 0.1106,-0.1228 0.1366,-0.1404 0.2449,-0.2744 0.216,-0.2665 0.1304,-0.1982 0.2892,-0.3898 0.6797,-0.8226 1.8411,-1.855 1.8966,-2.5248 -3.0013,-0.4782 -4.0436,-0.1477 -6.7663,2.7521 0,0 -2.5018,3.3217 -2.5018,3.3217 -0.2988,0.4374 -0.6222,0.6743 -0.7798,1.2435 z m 37.9933,85.5562 c -0.8921,-0.2036 -2.4744,-0.6843 -3.3939,-0.6653 -0.1166,1.713 1.3331,3.1759 2.8749,3.9024 0,0 6.9627,1.5792 6.9627,1.5792 0.2962,0.0476 0.6761,0.2364 1.2515,-0.0224 0.2815,-0.7931 -0.9567,-1.9754 -1.5231,-2.4593 -1.2393,-1.0596 -4.6128,-1.9797 -6.1721,-2.3346 z m -43.6125,-55.4582 c -4.5003,0.5176 -3.1532,10.1251 -2.5151,11.8661 0.8495,-0.004 1.4708,-1.0964 1.8388,-1.8243 1.0258,-2.0294 0.8149,-4.4195 0.8229,-6.6419 0,0 -0.1466,-3.3999 -0.1466,-3.3999 z m -2.531,-10.0587 c 1.5372,0.121 3.0024,-1.427 3.7675,-2.6263 0.5783,-0.9071 3.0246,-6.5546 3.0198,-7.5526 -2.6057,-0.0102 -4.1091,1.9133 -4.8844,3.6178 -0.4255,0.9354 -1.9389,5.4697 -1.9029,6.5611 z m 3.2105,20.4296 c -2.0747,0.6491 -2.3392,3.8712 -2.003,5.921 0.1293,0.7869 1.289,4.8852 1.7819,5.8666 0.1151,0.2301 0.1094,0.1683 0.2211,0.2967 2.4182,-0.7869 1.436,-6.8411 0.987,-8.6085 -0.0105,-0.0425 -0.0238,-0.0865 -0.036,-0.129 0,0 -0.6429,-2.7623 -0.6429,-2.7623 -0.0212,-0.0788 -0.085,-0.2347 -0.1477,-0.3637 0,0 -0.1604,-0.2208 -0.1604,-0.2208 z m 38.4505,45.1128 c -1.3682,-1.4791 -7.5583,-4.3589 -8.6261,-4.4388 -0.3948,1.1594 0.3875,2.9418 1.5461,3.9189 0,0 6.3289,3.0107 6.3289,3.0107 0.8257,0.2783 1.3237,0.5661 2.1183,0.4972 0.0332,-0.29 0.0714,-0.2787 0.0125,-0.5885 0,0 -1.3797,-2.3995 -1.3797,-2.3995 z M 242.9402,409.009 c -1.0035,-0.007 -1.6954,0.5996 -2.3573,1.2101 -2.4146,2.2284 -2.2904,9.8652 -2.1005,10.0591 0.546,0.555 2.5824,-1.3938 3.3341,-4.231 0,0 0.6795,-3.5473 0.6795,-3.5473 0.01,-0.0601 0.0479,-0.2259 0.0573,-0.2874 0,0 0.3869,-3.2035 0.3869,-3.2035 z m 80.473,64.7144 c 0.6628,0.199 0.8487,-0.1788 0.8533,-0.1814 2.3235,-1.4216 5.1086,-2.4324 6.9275,-5.1165 0.5066,-0.7481 0.4125,-0.7163 0.5792,-1.6603 0.5196,-2.9324 -0.3609,-1.8827 -2.6459,-0.271 0,0 -2.5302,1.8715 -2.5302,1.8715 -1.779,1.2792 -2.9659,2.7501 -3.1839,5.3577 z m 6.4899,-98.1762 c 0,0 5.427,4.1989 5.427,4.1989 0.7682,0.4675 0.9587,0.6359 2.0384,0.9976 0.9195,0.3081 2.6203,0.3801 3.5019,0.0377 -0.0533,-0.6418 0.2132,-0.1545 -0.3059,-0.6395 -0.2761,-0.2583 -0.4354,-0.36 -0.6746,-0.5979 -1.7541,-1.745 -4.0173,-4.026 -6.5407,-4.6471 -0.8475,-0.2083 -2.0874,-0.1806 -2.8003,0.1497 -0.7586,0.3515 -0.6083,0.451 -0.6458,0.5006 z m -27.8855,104.0859 c 0.4116,0.1684 0.3611,0.0371 0.8782,-0.0235 0.3325,-0.0394 0.6661,-0.0213 0.9862,-0.0649 0,0 2.5973,-0.4672 2.5973,-0.4672 0.3447,-0.0867 0.4051,-0.112 0.8048,-0.2058 1.5466,-0.362 1.487,-0.2786 3.0532,-1.0454 0.7089,-0.3467 0.6874,-0.3107 1.2124,-0.8257 0.5547,-0.5446 0.5683,-0.5125 0.8864,-1.1458 0.2775,-0.5528 0.4229,-0.8039 0.5071,-1.5466 -1.5168,0.1897 -5.2237,1.0848 -6.6949,1.6475 -1.1217,0.4283 -4.7492,1.9999 -4.2307,3.6774 z m 10.9114,-1.9029 c 2.2212,-0.0632 8.2548,-2.8979 9.2495,-4.7117 0.4081,-0.7444 0.7426,-1.5962 0.2982,-2.4205 -3.1468,1.5423 -9.3867,3.348 -9.5477,7.1322 z m 8.011,-107.3259 c 0.3379,0.3883 1.531,0.9161 2.1878,1.2889 0,0 5.1772,2.2742 5.1772,2.2742 1.4576,0.3371 3.6184,0.3623 4.2304,-0.502 0,0 -0.4555,-0.5071 -0.4555,-0.5071 -2.0262,-1.3793 -5.5539,-3.5252 -7.8956,-3.5853 -1.232,-0.0314 -2.6915,0.1959 -3.2443,1.0313 z m -50.26,-2.2006 c 2.2575,0.764 9.7651,-1.1786 9.7314,-3.924 -3.0532,-0.7982 -9.5854,0.3793 -9.7314,3.924 z m 44.4374,-3.8049 c -0.2073,0.8144 0.6321,1.2155 1.1046,1.6209 0.3858,0.3313 0.0428,0.0907 0.3731,0.2999 0,0 0.8495,0.5099 0.8495,0.5099 0.042,0.025 0.1624,0.0907 0.2064,0.1117 0,0 3.3431,1.0599 3.3431,1.0599 1.757,0.2857 1.3927,0.2075 3.3268,0.1695 0.2143,-2.1093 -5.3343,-5.1336 -9.2035,-3.7718 z m -59.2195,80.0178 c 33.3831,16.2292 60.2717,1.3683 56.1303,-0.0221 -0.1934,-0.0649 -1.1282,0.1414 -3.6264,0.4623 -18.5893,2.3876 -34.0495,2.071 -52.5039,-0.4402 z m 60.819,-0.5505 c -7.4984,8.8124 -27.8651,15.8023 -59.4175,3.856 8.6411,12.3913 24.093,21.4577 40.3384,21.4571 20.1115,-8e-4 37.8516,-12.2879 44.9144,-30.6139 -7.9965,2.7383 -17.3444,4.3787 -25.8353,5.3008 z m 17.519,-54.3416 c -0.7183,16.0878 -22.0031,26.2446 -23.2798,26.8492 14.364,3.3455 13.5431,19.8482 7.4191,25.261 11.5948,-1.0364 21.1142,-3.6706 24.8553,-4.9065 1.766,-4.9896 2.6419,-10.1891 2.6419,-15.7836 0,-11.7811 -4.5728,-23.0859 -11.6365,-31.4201 z m -2.3845,-2.5795 c -6.9259,-7.0934 -19.2226,-14.1395 -34.2136,-14.2347 -34.4937,-0.2189 -58.25,36.4158 -44.2301,67.5071 13.4796,5.011 48.3542,3.6343 60.724,1.8172 9.1843,-7.4664 5.7694,-24.0823 -7.9937,-24.133 0,0 -9.5618,3.1022 -9.6947,0.2171 -0.1344,-2.9211 8.371,-2.4828 8.371,-2.4828 13.9405,-3.3117 29.9273,-21.1465 22.676,-25.5045 -2.8607,-1.7195 -9.1981,-0.5694 -20.4919,9.944 -13.4609,14.5196 -30.123,43.6799 -36.4414,39.4648 -10.3527,-6.7998 34.9467,-43.2244 33.0531,-43.0161 -0.066,-0.0649 -19.6588,13.0292 -29.6093,8.2559 -3.6125,-1.7328 -4.7928,-5.2806 -1.4182,-7.9404 13.5411,18.8745 51.3885,-25.6184 38.4171,-3.5365 -0.1312,-0.589 10.63,-10.5684 20.8517,-6.3581 z m -34.2136,-16.4384 c 27.8563,0 50.4383,22.5819 50.4383,50.438 0,27.8566 -22.582,50.4383 -50.4383,50.4383 -27.8564,0 -50.4383,-22.5817 -50.4383,-50.4383 0,-27.8561 22.5819,-50.438 50.4383,-50.438 z m -24.8057,66.513 c 2.2343,0.0629 21.4328,-25.7528 23.5491,-29.5024 0.9873,-3.5717 -30.727,29.2991 -23.5491,29.5024 z m 24.8057,-85.0357 c 38.0857,0 68.9607,30.875 68.9607,68.9607 0,38.0854 -30.875,68.961 -68.9607,68.961 -38.0857,0 -68.961,-30.8756 -68.961,-68.961 0,-38.0857 30.8753,-68.9607 68.961,-68.9607 z m 3e-4,-3.7755 c 40.1712,0 72.7361,32.565 72.7361,72.7362 0,40.1717 -32.5649,72.7367 -72.7361,72.7367 -40.1718,0 -72.7367,-32.565 -72.7367,-72.7367 0,-40.1712 32.5649,-72.7362 72.7367,-72.7362 z" />
</svg>
